<svg width="244" height="27" viewBox="0 0 244 27" fill="none" xmlns="http://www.w3.org/2000/svg">
<path d="M5.06 18.206L0.836 13.41L5.06 8.592H10.472L6.248 13.41L10.472 18.206H5.06ZM17.0811 4.72V21H12.7691V4.72H17.0811ZM31.3287 14.686C31.3287 15.0233 31.3067 15.3607 31.2627 15.698H23.1007C23.1447 16.3727 23.328 16.8787 23.6507 17.216C23.988 17.5387 24.4134 17.7 24.9267 17.7C25.6454 17.7 26.1587 17.3773 26.4667 16.732H31.0647C30.874 17.5827 30.5 18.3453 29.9427 19.02C29.4 19.68 28.7107 20.2007 27.8747 20.582C27.0387 20.9633 26.1147 21.154 25.1027 21.154C23.8854 21.154 22.8 20.8973 21.8467 20.384C20.908 19.8707 20.1674 19.1373 19.6247 18.184C19.0967 17.2307 18.8327 16.1087 18.8327 14.818C18.8327 13.5273 19.0967 12.4127 19.6247 11.474C20.1527 10.5207 20.886 9.78733 21.8247 9.274C22.778 8.76067 23.8707 8.504 25.1027 8.504C26.32 8.504 27.398 8.75333 28.3367 9.252C29.2754 9.75067 30.0087 10.4693 30.5367 11.408C31.0647 12.332 31.3287 13.4247 31.3287 14.686ZM26.9287 13.608C26.9287 13.08 26.7527 12.6693 26.4007 12.376C26.0487 12.068 25.6087 11.914 25.0807 11.914C24.5527 11.914 24.12 12.0607 23.7827 12.354C23.4454 12.6327 23.2254 13.0507 23.1227 13.608H26.9287ZM38.8353 21.154C37.6033 21.154 36.496 20.8973 35.5133 20.384C34.5453 19.8707 33.7827 19.1373 33.2253 18.184C32.668 17.2307 32.3893 16.1087 32.3893 14.818C32.3893 13.542 32.668 12.4273 33.2253 11.474C33.7973 10.5207 34.5673 9.78733 35.5353 9.274C36.518 8.76067 37.6253 8.504 38.8573 8.504C40.0893 8.504 41.1893 8.76067 42.1573 9.274C43.14 9.78733 43.91 10.5207 44.4673 11.474C45.0393 12.4273 45.3253 13.542 45.3253 14.818C45.3253 16.094 45.0393 17.216 44.4673 18.184C43.91 19.1373 43.14 19.8707 42.1573 20.384C41.1747 20.8973 40.0673 21.154 38.8353 21.154ZM38.8353 17.414C39.4367 17.414 39.9353 17.194 40.3313 16.754C40.742 16.2993 40.9473 15.654 40.9473 14.818C40.9473 13.982 40.742 13.344 40.3313 12.904C39.9353 12.464 39.444 12.244 38.8573 12.244C38.2707 12.244 37.7793 12.464 37.3833 12.904C36.9873 13.344 36.7893 13.982 36.7893 14.818C36.7893 15.6687 36.98 16.314 37.3613 16.754C37.7427 17.194 38.234 17.414 38.8353 17.414ZM55.1537 8.548C56.5763 8.548 57.7057 9.02467 58.5417 9.978C59.3777 10.9167 59.7957 12.1927 59.7957 13.806V21H55.4837V14.378C55.4837 13.674 55.3003 13.124 54.9337 12.728C54.567 12.3173 54.0757 12.112 53.4597 12.112C52.8143 12.112 52.3083 12.3173 51.9417 12.728C51.575 13.124 51.3917 13.674 51.3917 14.378V21H47.0797V8.658H51.3917V10.418C51.773 9.86067 52.2863 9.41333 52.9317 9.076C53.577 8.724 54.3177 8.548 55.1537 8.548ZM61.4577 14.818C61.4577 13.542 61.685 12.4273 62.1397 11.474C62.609 10.5207 63.2397 9.78733 64.0317 9.274C64.8384 8.76067 65.733 8.504 66.7157 8.504C67.5664 8.504 68.2997 8.67267 68.9157 9.01C69.5317 9.34733 70.0084 9.802 70.3457 10.374V8.658H74.6577V21H70.3457V19.284C70.0084 19.856 69.5244 20.3107 68.8937 20.648C68.2777 20.9853 67.5517 21.154 66.7157 21.154C65.733 21.154 64.8384 20.8973 64.0317 20.384C63.2397 19.8707 62.609 19.1373 62.1397 18.184C61.685 17.216 61.4577 16.094 61.4577 14.818ZM70.3457 14.818C70.3457 14.026 70.1257 13.4027 69.6857 12.948C69.2604 12.4933 68.7324 12.266 68.1017 12.266C67.4564 12.266 66.921 12.4933 66.4957 12.948C66.0704 13.388 65.8577 14.0113 65.8577 14.818C65.8577 15.61 66.0704 16.2407 66.4957 16.71C66.921 17.1647 67.4564 17.392 68.1017 17.392C68.7324 17.392 69.2604 17.1647 69.6857 16.71C70.1257 16.2553 70.3457 15.6247 70.3457 14.818ZM81.4268 10.836C81.9108 10.132 82.4975 9.57467 83.1868 9.164C83.8761 8.75333 84.6168 8.548 85.4088 8.548V13.146H84.1988C83.2601 13.146 82.5635 13.3293 82.1088 13.696C81.6541 14.0627 81.4268 14.7007 81.4268 15.61V21H77.1148V8.658H81.4268V10.836ZM86.2507 14.818C86.2507 13.542 86.478 12.4273 86.9327 11.474C87.402 10.5207 88.04 9.78733 88.8467 9.274C89.6533 8.76067 90.548 8.504 91.5307 8.504C92.3227 8.504 93.0267 8.67267 93.6427 9.01C94.2733 9.33267 94.7647 9.78 95.1167 10.352V4.72H99.4507V21H95.1167V19.284C94.7793 19.856 94.3027 20.3107 93.6867 20.648C93.0707 20.9853 92.3447 21.154 91.5087 21.154C90.526 21.154 89.6313 20.8973 88.8247 20.384C88.0327 19.8707 87.402 19.1373 86.9327 18.184C86.478 17.216 86.2507 16.094 86.2507 14.818ZM95.1387 14.818C95.1387 14.026 94.9187 13.4027 94.4787 12.948C94.0533 12.4933 93.5253 12.266 92.8947 12.266C92.2493 12.266 91.714 12.4933 91.2887 12.948C90.8633 13.388 90.6507 14.0113 90.6507 14.818C90.6507 15.61 90.8633 16.2407 91.2887 16.71C91.714 17.1647 92.2493 17.392 92.8947 17.392C93.5253 17.392 94.0533 17.1647 94.4787 16.71C94.9187 16.2553 95.1387 15.6247 95.1387 14.818ZM107.65 21.154C106.418 21.154 105.31 20.8973 104.328 20.384C103.36 19.8707 102.597 19.1373 102.04 18.184C101.482 17.2307 101.204 16.1087 101.204 14.818C101.204 13.542 101.482 12.4273 102.04 11.474C102.612 10.5207 103.382 9.78733 104.35 9.274C105.332 8.76067 106.44 8.504 107.672 8.504C108.904 8.504 110.004 8.76067 110.972 9.274C111.954 9.78733 112.724 10.5207 113.282 11.474C113.854 12.4273 114.14 13.542 114.14 14.818C114.14 16.094 113.854 17.216 113.282 18.184C112.724 19.1373 111.954 19.8707 110.972 20.384C109.989 20.8973 108.882 21.154 107.65 21.154ZM107.65 17.414C108.251 17.414 108.75 17.194 109.146 16.754C109.556 16.2993 109.762 15.654 109.762 14.818C109.762 13.982 109.556 13.344 109.146 12.904C108.75 12.464 108.258 12.244 107.672 12.244C107.085 12.244 106.594 12.464 106.198 12.904C105.802 13.344 105.604 13.982 105.604 14.818C105.604 15.6687 105.794 16.314 106.176 16.754C106.557 17.194 107.048 17.414 107.65 17.414ZM134.132 8.658L130.986 21H126.146L124.43 13.52L122.648 21H117.83L114.706 8.658H118.996L120.382 16.842L122.208 8.658H126.828L128.72 16.864L130.084 8.658H134.132ZM139.671 10.374C140.008 9.802 140.485 9.34733 141.101 9.01C141.717 8.67267 142.443 8.504 143.279 8.504C144.262 8.504 145.149 8.76067 145.941 9.274C146.748 9.78733 147.378 10.5207 147.833 11.474C148.302 12.4273 148.537 13.542 148.537 14.818C148.537 16.094 148.302 17.216 147.833 18.184C147.378 19.1373 146.748 19.8707 145.941 20.384C145.149 20.8973 144.262 21.154 143.279 21.154C142.443 21.154 141.717 20.9853 141.101 20.648C140.5 20.3107 140.023 19.856 139.671 19.284V26.896H135.359V8.658H139.671V10.374ZM144.159 14.818C144.159 14.0113 143.939 13.388 143.499 12.948C143.074 12.4933 142.546 12.266 141.915 12.266C141.284 12.266 140.749 12.4933 140.309 12.948C139.884 13.4027 139.671 14.026 139.671 14.818C139.671 15.6247 139.884 16.2553 140.309 16.71C140.749 17.1647 141.284 17.392 141.915 17.392C142.546 17.392 143.074 17.1647 143.499 16.71C143.939 16.2407 144.159 15.61 144.159 14.818ZM162.104 14.686C162.104 15.0233 162.082 15.3607 162.038 15.698H153.876C153.92 16.3727 154.103 16.8787 154.426 17.216C154.763 17.5387 155.189 17.7 155.702 17.7C156.421 17.7 156.934 17.3773 157.242 16.732H161.84C161.649 17.5827 161.275 18.3453 160.718 19.02C160.175 19.68 159.486 20.2007 158.65 20.582C157.814 20.9633 156.89 21.154 155.878 21.154C154.661 21.154 153.575 20.8973 152.622 20.384C151.683 19.8707 150.943 19.1373 150.4 18.184C149.872 17.2307 149.608 16.1087 149.608 14.818C149.608 13.5273 149.872 12.4127 150.4 11.474C150.928 10.5207 151.661 9.78733 152.6 9.274C153.553 8.76067 154.646 8.504 155.878 8.504C157.095 8.504 158.173 8.75333 159.112 9.252C160.051 9.75067 160.784 10.4693 161.312 11.408C161.84 12.332 162.104 13.4247 162.104 14.686ZM157.704 13.608C157.704 13.08 157.528 12.6693 157.176 12.376C156.824 12.068 156.384 11.914 155.856 11.914C155.328 11.914 154.895 12.0607 154.558 12.354C154.221 12.6327 154.001 13.0507 153.898 13.608H157.704ZM171.569 21L169.347 17.898L167.587 21H162.857L166.971 14.598L162.681 8.658H167.521L169.743 11.76L171.525 8.658H176.255L172.053 14.95L176.409 21H171.569ZM181.995 10.374C182.333 9.802 182.809 9.34733 183.425 9.01C184.041 8.67267 184.767 8.504 185.603 8.504C186.586 8.504 187.473 8.76067 188.265 9.274C189.072 9.78733 189.703 10.5207 190.157 11.474C190.627 12.4273 190.861 13.542 190.861 14.818C190.861 16.094 190.627 17.216 190.157 18.184C189.703 19.1373 189.072 19.8707 188.265 20.384C187.473 20.8973 186.586 21.154 185.603 21.154C184.767 21.154 184.041 20.9853 183.425 20.648C182.824 20.3107 182.347 19.856 181.995 19.284V26.896H177.683V8.658H181.995V10.374ZM186.483 14.818C186.483 14.0113 186.263 13.388 185.823 12.948C185.398 12.4933 184.87 12.266 184.239 12.266C183.609 12.266 183.073 12.4933 182.633 12.948C182.208 13.4027 181.995 14.026 181.995 14.818C181.995 15.6247 182.208 16.2553 182.633 16.71C183.073 17.1647 183.609 17.392 184.239 17.392C184.87 17.392 185.398 17.1647 185.823 16.71C186.263 16.2407 186.483 15.61 186.483 14.818ZM204.428 14.686C204.428 15.0233 204.406 15.3607 204.362 15.698H196.2C196.244 16.3727 196.428 16.8787 196.75 17.216C197.088 17.5387 197.513 17.7 198.026 17.7C198.745 17.7 199.258 17.3773 199.566 16.732H204.164C203.974 17.5827 203.6 18.3453 203.042 19.02C202.5 19.68 201.81 20.2007 200.974 20.582C200.138 20.9633 199.214 21.154 198.202 21.154C196.985 21.154 195.9 20.8973 194.946 20.384C194.008 19.8707 193.267 19.1373 192.724 18.184C192.196 17.2307 191.932 16.1087 191.932 14.818C191.932 13.5273 192.196 12.4127 192.724 11.474C193.252 10.5207 193.986 9.78733 194.924 9.274C195.878 8.76067 196.97 8.504 198.202 8.504C199.42 8.504 200.498 8.75333 201.436 9.252C202.375 9.75067 203.108 10.4693 203.636 11.408C204.164 12.332 204.428 13.4247 204.428 14.686ZM200.028 13.608C200.028 13.08 199.852 12.6693 199.5 12.376C199.148 12.068 198.708 11.914 198.18 11.914C197.652 11.914 197.22 12.0607 196.882 12.354C196.545 12.6327 196.325 13.0507 196.222 13.608H200.028ZM210.505 10.836C210.989 10.132 211.576 9.57467 212.265 9.164C212.954 8.75333 213.695 8.548 214.487 8.548V13.146H213.277C212.338 13.146 211.642 13.3293 211.187 13.696C210.732 14.0627 210.505 14.7007 210.505 15.61V21H206.193V8.658H210.505V10.836ZM223.315 17.326V21H221.445C218.291 21 216.715 19.438 216.715 16.314V12.244H215.197V8.658H216.715V5.666H221.049V8.658H223.293V12.244H221.049V16.38C221.049 16.7173 221.122 16.9593 221.269 17.106C221.43 17.2527 221.694 17.326 222.061 17.326H223.315ZM233.807 0.0559995L227.933 25.246H223.775L229.649 0.0559995H233.807ZM234.352 8.592H239.742L243.966 13.41L239.742 18.206H234.352L238.576 13.41L234.352 8.592Z" fill="#212126"/>
</svg>
